# xmcd
#
# Track frame offsets: 
#        150
#        11610
#        23420
#        34215
#        44997
#        58000
#        69580
#        81545
#        94177
#        106592
#        118382
#        129785
#        141322
#        153187
#        167580
#        181227
#        193057
#        204325
#        216795
#        228975
#        241255
#        253407
#        265047
#        278005
#        288957
#        301235
#        312952
#        324455
#        337607
#
# Disc length: 4674 seconds
#
# Revision: 3
# Processed by: cddbd v1.5.2PL0 Copyright (c) Steve Scherf et al.
# Submitted via: ExactAudioCopy v1.1
#
DISCID=9812401d
DTITLE=Floyd Tillman - I Love You So Much It Hurts_CD1
DYEAR=2004
DGENRE=Country
TTITLE0=The Blue Ridge Playboys) - Anything
TTITLE1=The Blue Ridge Playboys - Blue Monday
TTITLE2=The Blue Ridge Playboys - Rhythm In The Air
TTITLE3=The Blue Ridge Playboys - Swing Baby Swing
TTITLE4=The Blue Ridge Playboys - Gimme My Dime Back
TTITLE5=The Blue Ridge Playboys - That Old Fashioned Way
TTITLE6=The Blue Ridge Playboys - Can't Nobody Truck Like Me
TTITLE7=The Blue Ridge Playboys - Take Me Back To West Texas
TTITLE8=The Blue Ridge Playboys - You're As Pretty As A Picture
TTITLE9=The Blue Ridge Playboys - Georgia Pines
TTITLE10=The Blue Ridge Playboys - Ain't You Kind Of Sorry Now
TTITLE11=The Blue Ridge Playboys - Ain't You Kind Of Sorry Now
TTITLE12=Leon Selph And His Blue Ridge Playboys - Whose Honey Are You
TTITLE13=Leon Selph And His Blue Ridge Playboys - What Difference Does
TTITLE13=It Make
TTITLE14=Leon Selph And His Blue Ridge Playboys - Two More Years (And 
TTITLE14=I'll Be Free)
TTITLE15=Leon Selph And His Blue Ridge Playboys - A Precious Memory
TTITLE16=Leon Selph And His Blue Ridge Playboys - Why Do I Love You
TTITLE17=Leon Selph And His Blue Ridge Playboys - Some Day
TTITLE18=Leon Selph And His Blue Ridge Playboys - If You Should Go Awa
TTITLE18=y I'd Cry
TTITLE19=I Didn't Know
TTITLE20=There Must Be Someone For Me
TTITLE21=I'm Always Dreaming Of You
TTITLE22=Don't Be Blue
TTITLE23=I Never Felt This Way Before
TTITLE24=Maybe I'll Get By Without You
TTITLE25=I'd Settle Down For You
TTITLE26=It Had To Be That Way
TTITLE27=The Village Boys - I'll Come Back To You
TTITLE28=The Village Boys - Nothing Matters To Me
EXTD=YEAR: 2004
EXTT0=
EXTT1=
EXTT2=
EXTT3=
EXTT4=
EXTT5=
EXTT6=
EXTT7=
EXTT8=
EXTT9=
EXTT10=
EXTT11=
EXTT12=
EXTT13=
EXTT14=
EXTT15=
EXTT16=
EXTT17=
EXTT18=
EXTT19=
EXTT20=
EXTT21=
EXTT22=
EXTT23=
EXTT24=
EXTT25=
EXTT26=
EXTT27=
EXTT28=
PLAYORDER=
